<?xml version="1.0" encoding="UTF-8"?>
<svg id="Layer_2" data-name="Layer 2" xmlns="http://www.w3.org/2000/svg" viewBox="0 0 513.79 812.59" fill="white" opacity="0.7">
  <path class="cls-1" d="M36.67,219.14c-4.34-3.62-10.29-2.52-15.25-4.45-4.88-1.91-10.26-2.58-15.64-3.84-.24-.65-.69-1.39-.74-2.15-.74-9.44,.74-10.87,10.13-10.05,12.83,1.13,25.67,2.17,38.5,3.3,2.65,.24,5.29,.67,7.9,1.09,2.69,.45,3.75,2.15,3.58,4.82-.19,2.99-2.06,3.78-4.6,3.62-4.06-.3-8.12-.74-12.19-1.06-3.8-.3-7.62-.54-11.44-.8-.09,.54-.2,1.08-.3,1.61,7.25,2.08,14.49,4.21,21.77,6.19,4.06,1.11,5.3,2.13,5.04,4.86-.28,3.06-2.1,4.64-5.9,4.79-5.94,.24-11.87,.28-17.81,.52-1.95,.07-3.88,.48-5.81,1.3,8.96,3.04,18.19,3.95,27.28,4.71,1.58,5.58,.87,7.09-3.93,7.05-5.92-.04-11.85-.61-17.75-1.13-6.92-.59-13.84-1.32-20.74-2.11-5.25-.61-10.48-1.43-16.1-2.19-.09-2.04-.35-3.62-.2-5.17,.59-6.49,1.45-7.27,7.85-7.53,7.36-.3,14.73-.54,22.07-.87,1.34-.06,2.65-.56,3.97-.85,.09-.54,.19-1.09,.28-1.63v-.02h.03Z"/>
  <path class="cls-1" d="M151.6,21.53c5.88-3.56,12.05-6.63,19.08-7.26,4.94-.45,9.02,1.69,11.12,6.14,5.05,10.73,9.99,21.54,14.47,32.53,2.73,6.66,.26,11.97-6.31,15.26-3.63,1.82-7.43,3.36-11.24,4.77-2.87,1.06-4.97,.26-6.33-2.9-6.77-15.53-13.73-30.95-20.59-46.43-.24-.53-.13-1.19-.2-2.13v.02Zm35.1,36.14c-.56-2.03-.77-3.45-1.33-4.72-3.67-8.35-7.38-16.69-11.17-24.99-.57-1.27-1.47-2.41-2.37-3.49-1.41-1.68-3.21-1.74-4.91-.55-1.61,1.12-2.53,2.54-1.57,4.68,4.51,10.02,8.94,20.08,13.41,30.12,.93,2.08,2.51,3.6,4.75,2.5,1.39-.68,2.23-2.44,3.17-3.57l.02,.02Z"/>
  <path class="cls-1" d="M212.09,5c6.53-3.57,13.34-3.71,19.97-3.74,4.62-.02,7.9,3,9.16,7.75,1.63,6.17,3.49,12.33-.45,18.45,7.64,6.78,6.88,16.23,9.11,24.58,.79,2.98-.81,4.61-3.79,5.16-3.63,.66-5.83-.47-6.59-3.75-.94-3.97-1.56-8.01-2.4-12.01-.28-1.38-.42-3.1-1.31-3.97-1.14-1.14-3.03-2.29-4.48-2.14-2.03,.2-2.67,2.2-2.29,4.31,.6,3.22,1.12,6.45,1.64,9.66,.48,2.99,.93,5.98,1.42,9.11-1.59,.7-2.63,1.33-3.76,1.62-5.1,1.25-6.43,.19-7.41-5.06-2.68-14.42-5.51-28.8-8.21-43.22-.4-2.15-.42-4.4-.65-6.73l.02-.02h.02Zm21.01,14.17c-.69-1.9-1.42-4.86-2.84-7.44-.52-.95-2.76-1.52-4.05-1.27-.9,.17-2.18,2.05-2.11,3.07,.23,3.22,.8,6.45,1.7,9.55,.29,1,1.99,2.18,3.07,2.2,1.09,.02,2.44-1.09,3.27-2.06,.58-.66,.48-1.91,.94-4.05h.02Z"/>
  <path class="cls-1" d="M273.91,26.96c1.18-5.82,2.2-11.67,3.6-17.44,1.69-6.9,6.46-10.14,13.52-9.43,2.24,.22,4.47,.61,6.62,1.24,4.09,1.17,6.74,4.03,7.36,8.18,.45,2.98,.47,6.14,0,9.13-1.37,8.89-2.97,17.77-4.67,26.61-.48,2.59-1.48,5.08-2.34,7.6-.99,2.9-3.07,4.71-5.95,5.76-5.58,2.07-11,1.04-15.88-1.68-3.26-1.81-5.27-5.19-4.86-9.31,.7-6.92,1.46-13.8,2.2-20.7,.11,0,.24,.04,.35,.04l.04,.02h0Zm18.61,3.57l.35,.06c.67-4.23,1.36-8.48,2-12.72,.23-1.41,.73-2.98,.33-4.23-.52-1.58-1.62-3.75-2.9-4.08-1.19-.32-3.36,1.1-4.32,2.34-1.04,1.36-1.34,3.38-1.68,5.18-1.51,8.02-2.95,16.07-4.39,24.13-.21,1.21-.44,2.42-.48,3.64-.07,2.9,1.76,5.93,3.64,5.44,1.69-.43,3.25-2.07,4.39-3.55,.8-1.03,.87-2.68,1.12-4.09,.69-4.02,1.28-8.08,1.91-12.11l.02-.02h.02Z"/>
  <path class="cls-1" d="M426.95,140.69c5.34-3.17,10.2-6.06,15.06-8.96,10.31-6.16,20.59-12.33,30.94-18.44,4.15-2.45,5.64-2.17,8.09,1.61,2,3.08,3.89,6.25,5.45,9.55,2.41,5.06,1.78,11.18-2.3,14.02-11.2,7.75-22.48,15.51-35.31,20.4-5.82,2.23-10.72,.26-14.17-5.08-2.54-3.93-4.79-8.03-7.79-13.11h.03Zm50.23-10.41c.15-5.25-2.47-6.81-6.38-4.56-7.98,4.54-15.82,9.31-23.7,14-1.58,.95-3.15,1.91-4.58,3.04-2.04,1.6-1.89,3.39-.19,5.23,2.17,2.34,4.54,2.37,7.16,.82,8.23-4.86,16.53-9.61,24.65-14.65,1.54-.96,2.39-3.02,3.04-3.88h0Z"/>
  <path class="cls-1" d="M82.72,144.76c-16.11-9.17-32.55-18.55-48.88-27.85,2.95-8.1,4.35-8.63,11.25-4.9,2.3,1.23,4.61,2.42,7.39,3.88,1-4.41-1.63-6.63-3.27-9.19-1.75-2.75-3.58-5.44-5.13-7.8,.11-.95,.06-1.41,.25-1.72,3.49-6.52,4.93-6.64,9.07-.73,1.88,2.68,3.82,5.35,5.39,8.2,2.62,4.76,6.84,6.72,11.87,7.79,9.18,1.96,18.29,4.13,27.3,6.18,.54,6.55-2.44,9.3-8.02,7.9-4.15-1.05-8.3-2.16-12.53-2.91-1.39-.25-3.67-.01-4.32,.86-1.42,1.98,.57,3.34,2.06,4.35,2.55,1.71,5.24,3.19,7.85,4.81,1.87,1.17,3.7,2.4,5.26,3.43,.34,4.3-1.85,6.17-5.55,7.72l.02,.02v-.04Z"/>
  <path class="cls-1" d="M455.12,76.56c-1.15,1.98-1.74,3.3-2.58,4.41-9.53,12.76-19.07,25.54-28.69,38.23-3.41,4.49-5.77,4.62-8.81,1.19-1.63-1.84-1.85-3.52-.28-5.43,.65-.78,1.24-1.61,1.87-2.43,1.82-2.36,2.36-4.6-.07-7.03-2.76-2.8-4.02-3.15-7.49-1.35-1.08,.57-2.04,1.39-3.13,1.89-2.73,1.26-5.08,.41-6.7-2.3-1.56-2.58,.32-3.65,2.04-4.84,13.76-9.5,27.54-18.94,41.23-28.51,2.34-1.63,4.54-2.13,6.64-.28,2.21,1.95,4.06,4.32,6.01,6.44l-.04,.02h0Zm-20.03,11.42c-.52-.46-1.04-.91-1.56-1.37-3.43,2.45-6.88,4.88-10.29,7.36-1.8,1.3-2.17,3.02-.59,4.66,1.5,1.56,3.47,1.56,4.8-.13,2.69-3.39,5.12-6.99,7.66-10.52,0,0-.02,0-.02,0Z"/>
  <path class="cls-1" d="M320.06,63.4c7.11-17.31,16.72-33.48,25.02-50.66,7.97,.53,14.16,4.26,19.46,9.41,2.99,2.9,3.42,7.05,1.83,10.88-1.69,4.13-3.59,8.28-6.09,11.96-3.11,4.56-7.62,6.62-13.32,4.93-7.03-2.08-7.62-3.05-12.18,5.7-.95,1.81-1.66,3.74-2.6,5.54-3.39,6.4-4.63,6.68-12.13,2.24h0Zm36.26-31.73c-.22-1.62-.12-3.32-.76-4.68-1.11-2.36-4.13-2.76-5.48-.64-1.97,3.06-3.72,6.33-5.07,9.72-.41,1.04,.45,3.18,1.41,4.06,1.46,1.34,3.57,1.16,4.85-.58,1.78-2.46,3.3-5.1,5.04-7.88h0Z"/>
  <path class="cls-1" d="M496.82,236.96c1.47-.48,3.06-.83,4.53-1.5,2.54-1.13,2.76-3.38,2.21-5.71-.54-2.28-2.63-2.95-4.32-2.41-2.62,.83-5.34,2.06-7.34,3.88-3,2.73-5.32,6.19-8.11,9.18-6.05,6.51-17.16,8.96-24.72,5.56-7.9-3.54-9.42-17.32-2.28-22.26,3.71-2.56,7.9-4.28,12.56-2.58,1.3,5.9,1.28,5.95-3.19,8.42-3.52,1.97-4.49,3.65-3.38,6.03,1.04,2.26,4.77,3.77,7.46,2.32,2.63-1.43,4.97-3.52,7.1-5.68,2.73-2.75,4.92-6.03,7.64-8.75,5.58-5.56,12.58-6.58,19.92-5.14,6.58,1.3,9.01,8.35,8.88,14.45-.09,4.56-3,10.29-9.76,10.72-.41,.02-.82,.13-1.21,.19-6.25,.83-6.99,.04-6.03-6.71h.04Z"/>
  <path class="cls-1" d="M106.1,81.33c3.08,3.53,5.75,6.84,8.67,9.89,1.98,2.06,4.18,1.06,6.07-.4,1.79-1.38,3.33-3.06,5.14-4.36,2.4-1.7,4.48-1.22,6.4,1.03,1.76,2.07,1.05,3.8-.64,5.34-4.11,3.7-8.14,7.49-12.46,10.93-3.1,2.47-5.13,2.33-7.52-.33-11.3-12.67-22.48-25.42-33.68-38.17-.52-.58-.69-1.45-1.31-2.9,5.21-4.63,10.39-9.47,15.85-14,1.98-1.65,4.73-.67,6.46,1.53,1.62,2.09,.88,3.82-.76,5.38-1.47,1.41-3.08,2.69-4.56,4.1-3.49,3.32-3.52,4.03-.64,7.62,.51,.63,1.06,1.25,1.61,1.85,3.97,4.41,4.78,4.48,9.62,.93,.81-.6,1.55-1.44,2.46-1.77,2.5-.87,4.38,.34,5.82,2.26,1.34,1.78,.87,3.41-.62,4.91-1.84,1.86-3.63,3.76-5.93,6.14l.02,.02h0Z"/>
  <path class="cls-1" d="M507.56,191.02c-3.04,1.11-5.56,2.04-8.48,3.12-1.45-4.01-2.73-7.2-3.75-10.46-.74-2.39-2.15-3.23-4.56-2.97-3.56,.39-6.84,1.26-9.46,4.79,.33,1.58,.76,3.54,1.15,5.51,.91,4.58,.39,5.4-4.19,6.05-.98,.15-1.98,.02-3.13,.02-1.54-3.25-2.99-6.32-4.66-9.85-3.67,1-7.07,1.61-10.22,2.87-4.01,1.61-4.77,3.65-3.65,7.83,.15,.59,.43,1.15,.63,1.72,2.54,7.05,2.21,7.62-5.81,9.14-3.67-6.29-5.19-13.47-7.09-20.48-.5-1.82,.39-3.06,2.32-3.65,8.55-2.67,17.08-5.43,25.63-8.14,7.16-2.28,14.36-4.49,21.5-6.88,5.16-1.72,6.47-1.35,8.27,3.82,1.89,5.38,3.43,10.89,5.51,17.58l-.02-.02h0Z"/>
  <path class="cls-1" d="M399.02,63.44c1.91,1.54,3.45,2.82,5.04,4.04,4.14,3.19,4.14,4.58-.11,7.88-.46,.37-1.08,.56-1.58,.8-.46-.09-.91-.07-1.26-.24-5.33-2.61-9.61-1.49-12.85,3.36-1.6,2.39-3.12,4.82-4.75,7.18-3.99,5.77-6.36,5.81-11.67-.11,.7-1.22,1.43-2.63,2.28-3.95,8.64-13.15,17.27-26.3,25.97-39.41,2.93-4.4,4.15-4.73,8.4-2.19,4.21,2.52,8.27,5.32,12.35,8.03,1.76,1.17,3.39,2.49,2.21,4.99-1.17,2.49-4.1,3.78-6.71,2.67-1.85-.8-3.45-2.17-5.25-3.12-3.45-1.8-4.51-1.63-6.71,1.47-1.87,2.62-3.45,5.45-5.4,8.57l.04,.04h0Z"/>
  <path class="cls-1" d="M26.31,534.1c-.95-1.83-1.5-2.49-1.61-3.21-.22-1.48-.24-3-.24-4.5-.24-63.19-.56-126.4-.65-189.59-.04-24.5,.39-48.99,.67-73.5,.02-2.16,.5-4.32,.76-6.35,1.06,.06,1.3,0,1.43,.12,.15,.12,.28,.35,.3,.55,.13,1.05,.35,2.12,.35,3.18,0,90.07-.04,180.16-.07,270.24,0,.6-.33,1.21-.91,3.1l-.02-.02v-.02Z"/>
  <path class="cls-1" d="M488.54,257.17c.5,92.16,.63,184.31-.06,276.45l-1.28,.19c-.33-.68-.96-1.36-.96-2.02-.06-90.91-.07-181.82-.04-272.74,0-.7,.59-1.4,.91-2.1,.48,.06,.96,.14,1.45,.19l-.02,.02h0Z"/>
  <path class="cls-1" d="M472.14,686.02c-10.15-5.29-20.07-10.37-29.92-15.62-3.47-1.85-3.84-3.41-2.23-7.01,.41-.93,1.09-1.72,1.5-2.65,3.71-8.38,9.03-9.4,17.1-3.21,3.28,2.52,6.27,4.56,10.44,5.45,3.65,.8,7.09,3.08,10.33,5.14,.91,.57,1.32,2.87,.96,4.1-.22,.82-2.21,1.6-3.39,1.58-1.32,0-2.63-.91-3.91-1.5-2.04-.93-3.99-2.11-6.08-2.8-.95-.32-2.19,.33-3.3,.54,.26,1.28,.22,2.74,.89,3.77,.61,.93,1.97,1.37,3.04,1.97,1.43,.8,2.91,1.48,4.3,2.32,3.97,2.37,4.04,3.3,.26,7.92v0Zm-14.75-20.2c-1.5-1.34-2.47-2.63-3.75-3.21-1.5-.67-3.28-.78-4.95-.87-.19,0-.89,2.28-.63,2.45,2.06,1.37,4.25,2.62,6.53,3.6,.43,.19,1.43-.96,2.82-1.98l-.02,.02h0Z"/>
  <path class="cls-1" d="M401.68,745.12c-2.8,2.97-1.63,4.66-.35,6.36,1.72,2.26,3.56,4.49,5.08,6.88,.93,1.43,1.02,3.02-.7,4.3-1.63,1.21-3.08,.96-4.4-.26-1.04-.96-1.89-2.13-2.76-3.25-5.56-7.03-11.11-14.08-16.66-21.13-3.45-4.4-3.34-5.29,1.02-8.98,.32-.26,.63-.52,.95-.76,7.72-6.16,14.99-4.34,18.03,5.01,1.06,3.23,2.84,4.82,5.3,6.83,3.58,2.89,6.32,6.84,9.24,10.52,1.15,1.45,.89,3.43-.93,4.12-1.24,.46-3.25,.33-4.28-.41-1.6-1.15-2.54-3.17-3.99-4.58-1.67-1.63-3.58-3-5.55-4.62v-.04h0Zm-11.63-13.47c-.87,3.89,.06,6.92,2.39,8.31,2.02,1.21,3.45,.37,4.54-1.76-1.26-2.95-2.87-5.62-6.94-6.53v-.02h0Z"/>
  <path class="cls-1" d="M.06,585c0-1.24-.15-2.04,.02-2.76,.69-2.95,1.67-5.82,2.15-8.79,.85-5.27,3.19-8.75,8.33-9.26,8.51-.83,17.14-1.15,25.71-.93,5.25,.13,7.12,3.1,7.2,8.79,.07,5.64-2.28,9.14-7.05,9.94-2.8,.48-5.69,.52-8.57,.61-6.71,.24-13.45,.3-20.14,.63-1.34,.06-2.6,1.08-3.95,1.43-1.06,.28-2.23,.22-3.67,.33h-.03Zm9.26-12.36c-.17,2.95,1.37,3.88,3.75,3.8,6.32-.17,12.65-.39,18.97-.63,.8-.04,1.78-.07,2.36-.52,.89-.69,2.06-1.72,2.06-2.6,0-.95-1.06-2.3-1.98-2.73-1.22-.56-2.8-.57-4.19-.45-6.1,.56-12.19,1.21-18.27,1.93-.93,.11-1.78,.78-2.69,1.19h-.01Z"/>
  <path class="cls-1" d="M431.69,681.91c2.26,.85,4.41,1.21,6.01,2.34,6.31,4.51,12.56,9.09,18.57,13.97,3.95,3.21,4.4,6.66,2.36,10.89-3.67,7.64-9.55,8.16-14.87,4.19-5.86-4.4-11.85-8.62-17.66-13.08-6.42-4.92-3.77-11.91,.37-15.77,1.37-1.28,3.51-1.74,5.23-2.56v.02h-.01Zm-2.67,9.16c.45,1.09,.61,2.78,1.52,3.49,5.62,4.4,11.43,8.57,17.17,12.8,.48,.35,1.09,.56,1.69,.69,2.19,.5,3.64-1.02,2.89-3.17-.32-.89-.96-1.82-1.72-2.39-5.21-3.93-10.48-7.75-15.73-11.63-1.8-1.34-3.58-1.89-5.84,.22h.02Z"/>
  <path class="cls-1" d="M64.98,179.75c-17.84-5.9-35.56-11.76-52.99-17.53-.11-6.97,1.34-8.72,6.77-7.46,6.14,1.43,12.07,3.65,18.08,5.62,9.11,2.97,18.23,5.9,27.25,9.09,7.07,2.5,7.29,4.79,.87,10.28h.02Z"/>
  <path class="cls-1" d="M285.56,810.57c-.33-3.47-.59-6.49-.93-9.5-.15-1.43-.3-2.86-.61-4.25-.52-2.17-2.11-2.91-4.19-2.63-1.93,.26-2.97,1.5-2.78,3.38,.32,3.04,.96,6.05,1.26,9.09,.45,4.41-.57,5.29-5.99,5.04-.2-2.34-.37-4.73-.63-7.12-.91-8.51-1.89-17.03-2.76-25.56-.17-1.6-.22-3.32,.22-4.82,.28-.93,1.58-2.13,2.45-2.15,.82-.02,2.13,1.21,2.41,2.13,.76,2.54,1.08,5.19,1.63,7.81,.26,1.19,.35,2.58,1.04,3.47,.63,.8,1.97,1.41,3,1.41,.7,0,1.89-1.09,2.02-1.84,.35-2.19,.35-4.45,.37-6.7,.02-1.84-.37-3.73-.06-5.49,.17-.93,1.45-2.15,2.34-2.26,.82-.09,2.28,.96,2.6,1.82,.87,2.49,1.54,5.12,1.87,7.73,.96,7.7,1.71,15.41,2.54,23.13,.52,4.77-.28,5.95-5.84,7.31h.04Z"/>
  <path class="cls-1" d="M48.15,608.7v6.51c-6.01,1.22-11.76,2.39-17.51,3.56-4.17,.85-8.35,1.87-12.56,2.49-6.38,.93-9.33-1.45-10.5-6.68-1.34-5.95,1.48-10.66,7.4-12.11,8.94-2.17,17.97-3.93,26.99-5.82,.95-.2,1.95-.02,3.49-.02,.15,2,.28,3.69,.45,5.81-8.57,1.93-16.67,3.77-24.8,5.56-1,.22-2.02,.32-3.02,.5-2.34,.41-3.91,1.8-3.45,4.19,.46,2.45,2.75,2.13,4.53,1.78,7.42-1.47,14.82-3.08,22.22-4.6,1.97-.41,3.97-.69,6.75-1.15l.02-.02h-.01Z"/>
  <path class="cls-1" d="M18.22,646.82c-1.84-4.77-1.58-6.08,2-6.9,10.57-2.36,21.22-4.43,31.83-6.55,1.98-.39,3.69,.19,4.49,2.26,.82,2.13,1.56,4.34-.37,6.29-.85,.85-1.84,1.65-2.89,2.26-8.61,5.06-17.25,10.07-25.84,15.15-1.69,1-3.23,1.93-4.8,0-1.5-1.84-.67-3.41,.67-4.88,.56-.59,1.52-1.06,1.69-1.72,.39-1.63,.93-3.51,.5-5.03-.63-2.21-2.65-2.11-4.6-1.43-.74,.26-1.56,.32-2.69,.54h0Zm22.57-2.92c-4.87-.89-7.21,.38-7.03,3.8,2.11-1.13,3.97-2.15,7.03-3.8Z"/>
  <path class="cls-1" d="M369.45,784.49c-6.34-11.26-12.52-22.22-18.77-33.33,.8-.91,1.39-1.74,2.13-2.37,9.87-8.62,19.29-5.47,22.05,7.4,.7,3.28-.74,6.05-2.62,8.49-3.51,4.56-3.56,4.51-.93,9.46,.76,1.45,1.65,2.86,2.23,4.38,1.21,3.21,.85,3.71-4.08,5.97h-.01Zm-.54-26.58c-1.61-2.19-3-4.34-4.71-6.21-.45-.5-2.1-.56-2.71-.11-.65,.46-1.22,1.95-.95,2.62,.83,2.06,1.97,4.02,3.28,5.81,.43,.57,1.91,.78,2.69,.52s1.28-1.34,2.39-2.62h0Z"/>
  <path class="cls-1" d="M182.84,796.16c4.92-1.54,5.84-2.74,4.6-6.32-.8-2.28-2.08-4.43-3.3-6.55-2.93-4.99-2.76-10.2-1.02-15.41,1.47-4.41,5.9-6.45,10.4-5.21,4.67,1.28,7.44,5.17,6.75,9.59-.3,1.93-.95,3.69-3.28,3.73-2.02,.04-2.76-1.15-2.91-3.13-.15-1.89-.87-3.77-3.34-3.41-2.19,.3-3.51,2.73-2.5,5.36,1.43,3.82,3.51,7.38,5.04,11.15,2.08,5.06,.32,12.32-3.62,15.75-3.49,3.04-7.33,2.93-11.67-.32-2.73-2.04-4.06-6.83-2.45-9.96,.56-1.08,2.08-2.26,3.15-2.26,.89,0,2.02,1.54,2.62,2.63,.74,1.34,1.04,2.89,1.52,4.36v0Z"/>
  <path class="cls-1" d="M328.27,797.31c.69,2.1,1.04,4.23-1.91,5.17-3.47,1.11-6.97,2.23-10.55,2.87-2.5,.45-3.6-1.89-4.14-3.78-2.84-9.96-5.58-19.96-8.05-30.01-.35-1.45,.37-4.3,1.41-4.79,4.34-2.02,8.94-3.67,14.15-3.38,.76,3.6-.2,5.58-3.58,6.75-4.64,1.6-5.27,3.62-3.25,7.64,1.13,2.26,2.71,2.8,5.01,2.13,1.98-.57,3.77-.3,4.28,2.08,.46,2.13-.65,3.19-2.62,4.14-3.51,1.67-4.04,3.95-2.52,7.99,1.26,3.34,2.41,3.86,6.7,3.08,1.21-.22,2.41-.41,3.62-.5,.35-.04,.72,.28,1.45,.56v.04h0Z"/>
  <path class="cls-1" d="M466.78,586.11c-1.61-5.66-1.41-6.14,2.87-7.7,1.34-.48,2.65-1,3.97-1.54,.17-.06,.24-.33,.82-1.19-2.17-1.3-4.53-2.37-6.44-3.99-1-.85-2-2.95-1.6-3.88,.43-1,2.69-2,3.84-1.72,3.15,.78,6.21,2.06,9.18,3.43,6.01,2.78,12.11,4.95,18.88,4.54,1.41-.09,2.86,.22,4.27,.48,2.06,.39,3.39,1.56,3.1,3.8-.26,2.02-1.34,3.43-3.62,3.39-1.43-.02-2.95,.13-4.27-.32-6.23-2.08-12.13,.04-18.07,1.32-4.36,.93-8.62,2.23-12.93,3.36h-.02l.02,.02Z"/>
  <path class="cls-1" d="M121.97,738.31c1.39-.69,2.8-1.32,4.15-2.08,1.24-.69,2.34-1.87,3.64-2.15,1.15-.24,2.95,.04,3.69,.82,1.26,1.32,.98,2.97-.74,4.12-2.87,1.93-5.64,4.01-8.57,5.84-5.94,3.71-11.07,8.25-15.02,14.08-.69,1-1.3,2.36-2.28,2.8-1.28,.56-2.87,.37-4.34,.5-.06-1.32-.22-2.63-.15-3.93,.04-.54,.56-1.08,.96-1.52,7.42-8.01,10.68-18.07,13.84-28.17,.56-1.78,.82-3.91,3.39-3.28,2.73,.67,2.49,2.71,1.91,4.9-.61,2.32-1.02,4.71-1.52,7.07l1.06,1.06-.02-.04v-.02Z"/>
  <path class="cls-1" d="M99.86,716.26c-7.68,7.38-15.45,14.82-23.17,22.24-4.45-3.32-4.67-3.58-1.52-6.88,5.21-5.45,10.7-10.66,16.14-15.91,2.43-2.36,4.79-4.45,2.67-8.38-.48-.89,.5-3.08,1.47-3.99,.5-.48,2.73,.17,3.62,.95,2.75,2.43,5.25,5.14,7.83,7.77,1.56,1.58,2.58,3.6,1.13,5.47-1.58,2.04-3.6,1.06-5.4-.22-.63-.45-1.48-.57-2.75-1.04h-.02Z"/>
  <path class="cls-1" d="M235.69,777.3c-.83-2.73-.26-5.1,2.91-5.3,5.23-.32,10.48,.04,15.32,1.15,.87,2.91-.15,4.71-1.98,5.08-4.15,.83-4.28,3.73-4.36,6.92-.17,6.32-.33,12.65-.63,18.97-.09,2.02-.2,4.19-1.02,5.97-.52,1.15-2.34,1.69-3.56,2.5-.67-1.11-1.89-2.24-1.89-3.36,0-5.92,.28-11.83,.52-17.75,.07-1.84,.3-3.67,.43-5.49,.31-4.28-1.6-7.18-5.73-8.72v.02h-.01Z"/>
  <path class="cls-1" d="M467.12,614.1c-2.65,1.24-2.34,6.29-6.08,4.32-2.82-1.48-.87-4.51-.56-6.71,.45-3.21,1.45-6.36,2.5-9.44,.32-.91,1.58-1.8,2.56-2.02,.54-.13,2.04,1.17,2.02,1.78-.19,5.14,3.34,5.69,7.16,6.47,6.81,1.39,13.54,3.15,20.31,4.75,4.6,1.08,5.1,2.23,3,7.92-10.37-2.37-20.83-4.75-30.9-7.05l-.02-.02h0Z"/>
  <path class="cls-1" d="M69.22,664.57c-.91,.85-2.1,2.45-3.69,3.41-6.12,3.69-12.33,7.2-18.53,10.74-5.25,3-5.21,2.99-3.56,8.92,.35,1.28,.39,2.91-.11,4.08-.74,1.76-2.6,2.5-3.86,.7-2.21-3.15-4.17-6.53-5.73-10.03-.48-1.08,.26-3.65,1.24-4.25,9.81-5.92,19.73-11.63,29.73-17.21,2.06-1.15,4.21,.35,4.51,3.62v.02h0Z"/>
  <path class="cls-1" d="M409.75,706.65c1.69,1.52,3.52,3.1,5.27,4.77,6.36,6.08,12.8,12.09,19.01,18.32,3.64,3.65,3.26,5.04-1.71,7.88-3.28-3.1-6.71-6.27-10.07-9.51-4.86-4.67-9.76-9.29-14.49-14.1-3.23-3.28-2.91-4.3,1.98-7.38v.02h0Z"/>
  <path class="cls-1" d="M452.65,636.11c3.34-5.17,3.36-5.19,7.49-3.69,8.81,3.19,17.6,6.42,26.39,9.64,.76,.28,1.52,.57,2.24,.95,2.19,1.11,2.8,2.99,1.97,5.12-.89,2.28-2.95,1.93-4.69,1.35-4.8-1.61-9.57-3.38-14.34-5.1-4.75-1.72-9.53-3.36-14.21-5.25-1.74-.7-3.23-2-4.84-3.02h0Z"/>
  <path class="cls-1" d="M55.15,714.61c-.8-.91-1.71-1.93-3-3.38,1.74-1.89,3.15-3.91,5.01-5.36,7.07-5.51,14.28-10.83,21.44-16.23,.98-.74,1.89-1.69,2.99-2.08,1.02-.37,2.84-.57,3.28,0,.74,.93,1.06,2.58,.83,3.78-.2,1.04-1.24,2.11-2.17,2.82-8.94,6.75-17.92,13.41-26.89,20.09-.3,.22-.76,.2-1.47,.39l-.02-.04h0Z"/>
  <path class="cls-1" d="M149.03,789.98c5.14-11.35,10.05-22.24,14.99-33.13,.76-1.67,1.43-3.67,3.91-2.62,2.3,.98,1.91,2.97,1.19,4.69-2.93,6.9-5.95,13.76-8.98,20.61-1.32,2.97-2.87,5.84-4.04,8.87-1.32,3.41-3.36,3.56-7.07,1.58h0Z"/>
  <path class="cls-1" d="M337.77,168.33H174.21c-4.06-20.45,10.66-50.56,34.77-66.55,28.22-18.72,58.25-19.54,88.39-3.62,24.84,13.11,44.24,46.58,40.4,70.17h0Zm-59.49-68.83c-.57,.91-1.15,1.83-1.72,2.72,1.83,1.28,3.53,2.77,5.48,3.84,12.2,6.84,22.12,16.31,31.5,26.47,1.62,1.76,3.58,3.17,6.86,6.03,.19-11.25-5.68-17.47-11.23-23.14-8.46-8.58-18.38-15.18-30.87-15.94v.03h0Z"/>
  <path class="cls-1" d="M256.26,655.65h71.11c2.31,0,4.63,.05,6.94,.21,2.77,.19,4.24,1.88,4.17,4.55-.1,3.74,0,7.62-.89,11.2-5.21,21.91-16.71,39.82-35.92,51.89-30.66,19.24-61.76,18.9-92.14-.47-16.86-10.73-28.01-26.34-33.36-45.74-1.44-5.21-2.28-10.63-3.03-16-.47-3.46,1.5-5.42,5.05-5.53,2.31-.08,4.63-.1,6.94-.14h71.14v.02Zm59.3,34.11c-1.31,.21-2.05,.1-2.38,.42-11.8,10.49-24.17,20.14-38.59,26.89-1.67,.79-2.64,3.09-4.29,5.1,17.62,2.62,45.59-17.73,45.27-32.44v.03h-.01Z"/>
  <path class="cls-1" d="M182.98,281.81c2.07,1.86,4.24,3.62,6.2,5.58,29.27,29.19,58.46,58.49,87.85,87.58,3.98,3.93,6.08,7.96,5.84,13.7-.39,9.46-.1,18.95-.1,30.32-3.22-2.33-5.13-3.38-6.6-4.82-30.29-30.17-60.51-60.37-90.8-90.52-3.07-3.03-4.63-6.29-4.53-10.71,.24-10.08,.08-20.16,.08-30.22,.71-.29,1.41-.6,2.12-.89l-.05-.03v.02Z"/>
  <path class="cls-1" d="M182.33,205.74c3.07,2.54,5.1,4.01,6.86,5.74,29.41,29.35,58.73,58.78,88.23,88.05,3.77,3.74,5.58,7.62,5.39,12.99-.31,9.48-.08,18.98-.08,29.89-2.86-1.78-4.67-2.48-5.91-3.74-30.5-30.39-61.01-60.8-91.33-91.38-2.22-2.25-4.22-5.79-4.43-8.85-.55-9.22-.21-18.49-.1-27.72,0-1.05,.55-2.12,1.36-4.98h.01Z"/>
  <path class="cls-1" d="M183.43,357.36c6.29,6.29,12.59,12.59,18.88,18.88,24.9,24.84,49.69,49.79,74.75,74.48,4.01,3.95,6,7.98,5.79,13.64-.34,9.48-.1,18.95-.1,29.64-2.51-1.26-4.17-1.65-5.19-2.64-30.89-30.79-61.73-61.61-92.53-92.5-1.57-1.57-3.58-3.72-3.64-5.63-.34-11.7-.16-23.41-.16-35.11l2.25-.74-.05-.03h-.01Z"/>
  <path class="cls-1" d="M182.9,433.29c1.88,1.65,3.84,3.19,5.63,4.98,29.46,29.41,58.83,58.89,88.42,88.16,4.27,4.22,6.15,8.61,5.86,14.53-.36,7.2-.03,14.45-.14,21.68-.03,2.17-.45,4.37-.81,7.7-2.38-1.86-4.03-2.88-5.37-4.22-30.24-30.17-60.4-60.37-90.72-90.45-3.53-3.51-5.19-7.22-5.05-12.25,.29-9.77,.08-19.56,.08-29.32,.69-.26,1.36-.52,2.05-.79h.05Z"/>
  <path class="cls-1" d="M183.14,508.8c2.88,2.77,5.79,5.5,8.58,8.3,28.56,28.48,57.08,57.03,85.75,85.43,4.24,4.22,6.84,8.48,3.74,15.29-8.43,1.39-17.31,1.02-26.1,.16-2.25-.24-4.63-2.28-6.41-4.06-21.31-21.16-42.57-42.36-63.7-63.68-1.72-1.76-3.69-4.27-3.77-6.49-.36-11.44-.19-22.91-.19-34.35,.71-.21,1.41-.42,2.12-.62l-.03,.03h.01Z"/>
  <path class="cls-1" d="M223.54,206.37c10.92,0,21.86-.19,32.75,.16,2.28,.08,4.93,1.65,6.68,3.27,5.5,5.08,10.87,10.37,15.89,15.92,1.81,1.98,3.51,4.89,3.62,7.44,.36,10.08,.1,20.19,0,30.29,0,.76-.6,1.5-1.5,3.56-20.11-19.5-39.4-38.9-58.51-58.44,.34-.74,.69-1.47,1.05-2.2h.02Z"/>
  <path class="cls-1" d="M304.93,478.82c6.89,6.89,13.85,13.72,20.61,20.74,1.1,1.12,1.83,3.09,1.86,4.69,.16,11.2,.08,22.41,.08,35.77-3.41-2.75-5.39-4.11-7.07-5.79-5.68-5.76-13.33-10.73-16.26-17.7-2.93-6.94-1.15-15.87-1.36-23.93-.1-4.27,0-8.56,0-12.85,.71-.31,1.44-.6,2.15-.91h-.01Z"/>
  <path class="cls-1" d="M304.83,251.4c7.15,7.3,14.4,14.53,21.4,22,1.02,1.1,1.31,3.22,1.31,4.87,.08,10.08,0,20.16-.1,30.27,0,.74-.65,1.44-1.44,3.01-8.27-6.81-15.11-14.47-22.17-21.86-.52-.55-.81-1.57-.81-2.38-.05-11.68-.03-23.33-.03-35.01,.62-.29,1.23-.6,1.86-.89h0Z"/>
  <path class="cls-1" d="M324.94,463.19c-6.75-6.99-13.56-13.96-20.24-21.05-.91-.97-1.67-2.51-1.67-3.77-.14-11.42-.08-22.83-.08-36.55,4.01,3.64,6.55,5.7,8.82,8.06,5.19,5.37,12.13,10.11,14.77,16.57,2.64,6.46,1,14.74,1.15,22.21,.08,4.5,0,9.01,0,13.51-.91,.34-1.81,.69-2.72,1.05l-.03-.03h.01Z"/>
  <path class="cls-1" d="M304.93,554.57c7.01,7.07,14.09,14.09,20.95,21.31,1.05,1.12,1.6,3.14,1.6,4.77,.14,10.92,.08,21.81,.08,34.09-2.72-1.6-4.55-2.25-5.81-3.46-5.21-4.98-10.42-9.94-15.23-15.29-1.78-1.96-3.43-4.84-3.51-7.39-.39-10.92-.16-21.86-.16-32.8l2.12-1.26-.03,.03h-.01Z"/>
  <path class="cls-1" d="M162.71,179.35c1.47-.5,2.91-1.34,4.43-1.44,25.4-1.91,174.42-.5,181.28,2.02-1.76,1.07-2.88,2.22-4.17,2.43-2.25,.36-4.6,.19-6.91,.19H172.8c-3.27,0-6.55-.36-9.82-.57-.08-.86-.16-1.72-.26-2.59v-.03h-.01Z"/>
  <path class="cls-1" d="M325.78,387.52c-7.49-7.51-14.27-14.11-20.76-20.97-1.26-1.31-2.07-3.56-2.1-5.39-.19-10.89-.1-21.78-.1-33.99,2.62,1.67,4.37,2.43,5.65,3.69,5.15,5,10.42,9.94,15.16,15.32,1.93,2.2,3.67,5.37,3.79,8.2,.42,9.77,.1,19.59,0,29.35,0,.74-.62,1.47-1.67,3.79h.03Z"/>
  <path class="cls-1" d="M163.26,643.4c8.12-1.93,177.51-1.7,185.19,.62-2.2,.95-3.48,1.81-4.84,2.02-1.98,.29-4.03,.14-6.08,.14-54.96,0-109.88,0-164.84-.03-3.19,0-6.41-.42-9.61-.65,.05-.71,.14-1.39,.19-2.1h0Z"/>
  <path class="cls-1" d="M181.02,584.67c11.37,11.37,21.68,21.68,31.89,31.86-4.34,2.48-19.3,3.09-31.5,.74-1.07-10.42-.47-21.16-.39-32.6Z"/>
  <path class="cls-1" d="M302.09,206.79h24.77c1.65,9.46,.47,18.49,.84,27.75-5.08-1.65-18.19-12.94-22.78-19.59-1.31-1.91-1.6-4.5-2.83-8.17h-.01Z"/>
  <path class="cls-1" d="M262,76.12h-11.18c3.33-6.86,6.41-6.89,11.18,0Z"/>
  <path class="cls-1" d="M260.45,748.89c-2.95,3.44-6.18,3.71-9.68,.81,3.12-3.56,6.49-1,9.68-.81Z"/>
</svg>